<svg version="1.1" xmlns="http://www.w3.org/2000/svg" viewBox="0 0 518.6953125 937.7421875" width="1037.390625" height="1875.484375">
  <!-- svg-source:excalidraw -->
  
  <defs>
    <style class="style-fonts">
      @font-face {
        font-family: "Virgil";
        src: url("https://excalidraw.com/Virgil.woff2");
      }
      @font-face {
        font-family: "Cascadia";
        src: url("https://excalidraw.com/Cascadia.woff2");
      }
    </style>
  </defs>
  <rect x="0" y="0" width="518.6953125" height="937.7421875" fill="#ffffff"></rect><g stroke-opacity="0.2" fill-opacity="0.2" stroke-linecap="round" transform="translate(10.30859375 10) rotate(0 185.892578125 458.87109375)"><path d="M7.86 8.16 C7.86 8.16, 7.86 8.16, 7.86 8.16 M7.86 8.16 C7.86 8.16, 7.86 8.16, 7.86 8.16 M3.66 19.09 C8.44 12.29, 13.35 6.97, 18.1 2.48 M3.66 19.09 C7.51 14.32, 12.16 9.55, 18.1 2.48 M2.75 26.24 C8.52 19.43, 13.15 17.15, 24.4 1.33 M2.75 26.24 C10.82 17.13, 18.06 8.74, 24.4 1.33 M1.83 33.39 C12.06 22.79, 20.23 10.34, 30.7 0.18 M1.83 33.39 C8 27.29, 14.08 20.73, 30.7 0.18 M1.57 39.79 C12 25.88, 21.6 14.66, 34.37 2.05 M1.57 39.79 C14.75 25.1, 26.51 11.14, 34.37 2.05 M1.96 45.43 C10.85 35.24, 21.28 21.03, 39.36 2.41 M1.96 45.43 C13.7 31.5, 25.75 17.2, 39.36 2.41 M1.7 51.83 C9.3 39.59, 18.89 30.06, 45 2.02 M1.7 51.83 C16.65 35.93, 29.35 20.35, 45 2.02 M1.44 58.23 C13.21 45.13, 22.62 33.48, 49.99 2.38 M1.44 58.23 C15.87 40.7, 30.57 25.08, 49.99 2.38 M1.83 63.87 C14.17 48.88, 22.77 39.14, 55.63 1.98 M1.83 63.87 C18.57 47.02, 32.69 28.53, 55.63 1.98 M1.57 70.27 C23.4 43.2, 46.63 15.8, 60.62 2.34 M1.57 70.27 C23.02 47.41, 43.09 23.15, 60.62 2.34 M1.97 75.91 C19.57 54.31, 40.98 32.68, 66.26 1.95 M1.97 75.91 C20.08 55.48, 35.45 36.83, 66.26 1.95 M1.71 82.31 C18.37 62.85, 31.43 46.12, 71.25 2.31 M1.71 82.31 C22.09 59.69, 42.86 35.72, 71.25 2.31 M1.44 88.71 C24.76 62.16, 52.59 31.37, 76.89 1.91 M1.44 88.71 C16.49 69.54, 32.51 51.91, 76.89 1.91 M1.84 94.35 C29.03 59.62, 59.92 27.31, 81.88 2.27 M1.84 94.35 C23.12 68.59, 45.78 44.2, 81.88 2.27 M1.58 100.75 C18.83 78.8, 38.25 57.02, 87.52 1.88 M1.58 100.75 C27.51 70.22, 54.68 40.56, 87.52 1.88 M1.97 106.39 C28.39 76.01, 52.6 49.37, 92.51 2.24 M1.97 106.39 C23.54 82.15, 45.92 55.78, 92.51 2.24 M1.71 112.79 C36.4 77.27, 69.87 37.66, 98.15 1.85 M1.71 112.79 C37.38 71.97, 72.44 32.78, 98.15 1.85 M1.45 119.19 C42.68 71.88, 83.23 28.33, 103.14 2.21 M1.45 119.19 C27.86 86.77, 56.15 54.78, 103.14 2.21 M1.84 124.83 C34.45 87.23, 66.29 51.64, 108.78 1.81 M1.84 124.83 C43.33 75.56, 85.84 27.47, 108.78 1.81 M1.58 131.23 C43.91 78.59, 91.02 25.9, 113.77 2.17 M1.58 131.23 C30.21 96.91, 58.61 64.6, 113.77 2.17 M1.98 136.87 C49.07 81.71, 96.79 27.42, 119.41 1.78 M1.98 136.87 C27.35 106.42, 55.72 75.92, 119.41 1.78 M1.72 143.27 C47.33 96.28, 90.83 43.43, 124.4 2.14 M1.72 143.27 C26.9 114.33, 53.41 84.61, 124.4 2.14 M1.45 149.67 C48.24 97.17, 92.91 43.88, 130.04 1.74 M1.45 149.67 C45.65 99.47, 90.33 48.09, 130.04 1.74 M1.85 155.31 C48.12 103.05, 95.96 48.24, 135.03 2.1 M1.85 155.31 C48.56 102.57, 95.48 49.04, 135.03 2.1 M1.59 161.71 C30.47 129.02, 59.46 95.68, 140.67 1.71 M1.59 161.71 C53.36 100.07, 108.37 38.96, 140.67 1.71 M1.98 167.35 C39.91 122.12, 80.92 78.21, 145.66 2.07 M1.98 167.35 C32.43 132.5, 63.56 95.88, 145.66 2.07 M1.72 173.75 C53.47 113.19, 108.34 52.26, 150.65 2.43 M1.72 173.75 C42.6 129.37, 82.98 83.12, 150.65 2.43 M1.46 180.14 C36.73 138.64, 72.41 97.86, 156.29 2.03 M1.46 180.14 C61.1 113.16, 120.47 46.74, 156.29 2.03 M1.85 185.79 C59.82 119.78, 117.45 52.43, 161.28 2.39 M1.85 185.79 C45.64 136.37, 89.56 85.18, 161.28 2.39 M1.59 192.19 C50.39 132.39, 103.8 74.57, 166.92 2 M1.59 192.19 C53.73 134.05, 104.46 74.68, 166.92 2 M1.99 197.83 C68.1 125.21, 131.63 51.2, 171.91 2.36 M1.99 197.83 C60.35 129.37, 119.64 61.58, 171.91 2.36 M1.72 204.23 C44.54 153.72, 84.96 106.66, 177.55 1.96 M1.72 204.23 C54.31 144.14, 107.07 82.34, 177.55 1.96 M1.46 210.62 C44.37 159.26, 90.74 109.19, 182.54 2.32 M1.46 210.62 C39.45 167.04, 75.57 124.98, 182.54 2.32 M1.86 216.27 C61.37 147.34, 123.7 73.27, 188.18 1.93 M1.86 216.27 C70.29 136.27, 138.96 57.96, 188.18 1.93 M1.6 222.66 C44.28 175.49, 87.22 124.95, 193.17 2.29 M1.6 222.66 C44.07 172.34, 88.93 122.14, 193.17 2.29 M1.99 228.31 C65.18 153.64, 130.88 78.54, 198.81 1.9 M1.99 228.31 C67.95 151.29, 133.9 76.08, 198.81 1.9 M1.73 234.71 C59.01 165.62, 115.21 100.78, 203.8 2.26 M1.73 234.71 C79.12 148.15, 153.35 61.47, 203.8 2.26 M1.47 241.1 C72.38 157.42, 144.06 77.73, 209.44 1.86 M1.47 241.1 C73.32 156.55, 146.8 72.16, 209.44 1.86 M1.86 246.75 C49.32 192.21, 96.09 140.07, 214.43 2.22 M1.86 246.75 C55.63 184.24, 108.59 124.05, 214.43 2.22 M1.6 253.14 C77.16 168.15, 152.24 81.95, 220.07 1.83 M1.6 253.14 C84.05 157.95, 166.58 62.93, 220.07 1.83 M2 258.79 C70.2 182.61, 138.67 102.86, 225.06 2.19 M2 258.79 C57.92 195.3, 112.07 133.59, 225.06 2.19 M1.73 265.19 C60.4 194.71, 118.64 126.81, 230.7 1.79 M1.73 265.19 C70.55 185.56, 138.85 106.8, 230.7 1.79 M1.47 271.58 C53.88 209.72, 109.4 146.83, 235.69 2.15 M1.47 271.58 C49.49 216.32, 97.7 160.44, 235.69 2.15 M1.87 277.23 C68.99 199.49, 136.77 122.45, 241.33 1.76 M1.87 277.23 C50.39 222.18, 98.78 165.61, 241.33 1.76 M1.61 283.62 C52.44 225.26, 100.82 169.49, 246.32 2.12 M1.61 283.62 C88.99 183.4, 175.82 83.34, 246.32 2.12 M2 289.27 C87.42 191.55, 172.74 93.64, 251.96 1.72 M2 289.27 C80.75 198.44, 159.39 107.02, 251.96 1.72 M1.74 295.66 C61.89 226.88, 122.31 157.88, 256.95 2.08 M1.74 295.66 C98.16 183.83, 194.52 72.69, 256.95 2.08 M1.48 302.06 C64.89 229.91, 129.04 154.67, 262.59 1.69 M1.48 302.06 C69.97 225.19, 138.08 145.85, 262.59 1.69 M1.87 307.71 C63.58 234.8, 127.65 163.45, 267.58 2.05 M1.87 307.71 C87.93 206.12, 176.02 105.01, 267.58 2.05 M1.61 314.1 C95.45 205.13, 192.89 94.3, 272.56 2.41 M1.61 314.1 C105.6 192.91, 211.81 71.65, 272.56 2.41 M2.01 319.75 C93.53 213.94, 185.21 107.77, 278.21 2.01 M2.01 319.75 C94.07 214.81, 184.46 110.37, 278.21 2.01 M1.74 326.14 C81.77 235.85, 159.22 143.85, 283.19 2.37 M1.74 326.14 C76.67 237.01, 152.96 149.1, 283.19 2.37 M1.48 332.54 C104.88 213.95, 209.08 93.6, 288.84 1.98 M1.48 332.54 C75.22 247.25, 149.55 162.55, 288.84 1.98 M1.88 338.19 C61.03 272.36, 121.05 204.3, 293.82 2.34 M1.88 338.19 C115.05 210.65, 226.56 82.31, 293.82 2.34 M1.62 344.58 C108.75 219.96, 217.05 96.24, 299.47 1.94 M1.62 344.58 C82.43 250.26, 163.19 157.56, 299.47 1.94 M2.01 350.23 C109.02 229.22, 212.85 107.5, 304.45 2.3 M2.01 350.23 C71.8 270.68, 140.7 191.29, 304.45 2.3 M1.75 356.62 C87.94 255.34, 175.41 154.85, 310.1 1.91 M1.75 356.62 C92.48 249.42, 184.95 144.01, 310.1 1.91 M1.49 363.02 C98.73 251.91, 195.53 141.3, 315.08 2.27 M1.49 363.02 C72.37 280.65, 142.79 198.96, 315.08 2.27 M1.88 368.66 C88.17 267.69, 177.63 166.44, 320.73 1.88 M1.88 368.66 C102.84 250.69, 205.16 132.54, 320.73 1.88 M1.62 375.06 C109.15 252.98, 216.24 128.67, 325.71 2.24 M1.62 375.06 C68.95 295.77, 137.12 218.08, 325.71 2.24 M2.02 380.71 C70.17 300.79, 137.98 222.95, 331.36 1.84 M2.02 380.71 C99.96 266.84, 198.07 154.36, 331.36 1.84 M1.75 387.1 C77.58 302.2, 151.49 215.45, 336.34 2.2 M1.75 387.1 C111.89 259.21, 222.93 130.91, 336.34 2.2 M1.49 393.5 C121.75 255.62, 241.26 118.7, 341.99 1.81 M1.49 393.5 C86.94 293.29, 172.79 195.1, 341.99 1.81 M1.89 399.14 C85.23 302.85, 169.97 204.78, 347.63 1.41 M1.89 399.14 C127.11 255.3, 251.76 112.08, 347.63 1.41 M1.63 405.54 C102.93 288.95, 202.94 171.86, 351.96 2.53 M1.63 405.54 C131.64 253.85, 261.92 103.75, 351.96 2.53 M2.02 411.18 C77.93 322.15, 155.11 234.25, 356.29 3.64 M2.02 411.18 C139.46 255.2, 275.43 99.09, 356.29 3.64 M1.76 417.58 C71.8 334.39, 144.4 252.04, 359.97 5.51 M1.76 417.58 C114.77 286.72, 229.03 155.65, 359.97 5.51 M1.5 423.98 C84.34 329.38, 164.86 236.96, 363.64 7.38 M1.5 423.98 C111.74 298.16, 221.72 172, 363.64 7.38 M1.89 429.62 C142.14 268.7, 283.26 106.88, 366.66 10.01 M1.89 429.62 C117.21 298.81, 231.3 166.99, 366.66 10.01 M1.63 436.02 C111.36 312.44, 219.88 187.13, 368.37 14.14 M1.63 436.02 C125.18 292.67, 251.03 148.05, 368.37 14.14 M2.02 441.66 C131.37 294.41, 259.88 146.71, 370.07 18.27 M2.02 441.66 C95.16 334.59, 187.32 228.74, 370.07 18.27 M1.76 448.06 C122.02 308.89, 244.1 169.29, 371.12 23.16 M1.76 448.06 C126.09 304.17, 249.95 161.69, 371.12 23.16 M1.5 454.46 C111.17 328.27, 222.41 200.84, 371.52 28.8 M1.5 454.46 C144.86 290.82, 288.01 126.69, 371.52 28.8 M1.9 460.1 C143.23 298.55, 284.83 135.6, 373.23 32.94 M1.9 460.1 C91.39 355.71, 181.6 252.79, 373.23 32.94 M1.64 466.5 C93.63 359.71, 189.02 250.42, 372.96 39.34 M1.64 466.5 C93.3 358.44, 186.27 251.9, 372.96 39.34 M2.03 472.14 C133.31 323.51, 263.11 172.69, 373.36 44.98 M2.03 472.14 C86.35 374.41, 171.84 275.68, 373.36 44.98 M1.77 478.54 C130.69 332.54, 257.87 186.49, 373.1 51.38 M1.77 478.54 C123.86 335.2, 246.91 192.99, 373.1 51.38 M1.51 484.94 C119.11 347.75, 236.71 211.8, 372.84 57.77 M1.51 484.94 C148.09 318.47, 294.11 150.89, 372.84 57.77 M1.9 490.58 C112.38 364.29, 222 237.23, 373.23 63.42 M1.9 490.58 C150.17 321.96, 297.07 152.73, 373.23 63.42 M1.64 496.98 C77.4 410.47, 152.3 323.69, 372.97 69.81 M1.64 496.98 C88.22 397.38, 175.87 296.96, 372.97 69.81 M2.03 502.62 C134.03 349.04, 268.34 195.34, 373.36 75.46 M2.03 502.62 C138.16 344.16, 274.4 187.05, 373.36 75.46 M1.77 509.02 C109.68 387.25, 216.15 263.84, 373.1 81.86 M1.77 509.02 C142.63 347.01, 284.28 184.19, 373.1 81.86 M1.51 515.42 C142.23 352.26, 283.42 188.8, 372.84 88.25 M1.51 515.42 C92.25 411.73, 182.97 307.84, 372.84 88.25 M1.91 521.06 C118.41 386.82, 236.15 250.5, 373.24 93.9 M1.91 521.06 C103.49 403.43, 204.98 287.75, 373.24 93.9 M1.64 527.46 C122.79 390.31, 241.44 253.23, 372.97 100.29 M1.64 527.46 C143.3 361.99, 286.24 197.77, 372.97 100.29 M2.04 533.1 C143.02 368.51, 287.23 204.04, 373.37 105.94 M2.04 533.1 C101.26 421.19, 199.88 307.28, 373.37 105.94 M1.78 539.5 C127.43 394.28, 253.68 248.24, 373.11 112.34 M1.78 539.5 C82.97 446.01, 165.08 351.88, 373.11 112.34 M1.52 545.9 C95.03 438.31, 189.73 329.33, 372.85 118.73 M1.52 545.9 C126.08 400.54, 251.42 256.67, 372.85 118.73 M1.91 551.54 C120.77 415.79, 237.81 281.57, 373.24 124.38 M1.91 551.54 C129.33 403.61, 258.4 255.61, 373.24 124.38 M1.65 557.94 C89.11 457.14, 176.29 355.43, 372.98 130.77 M1.65 557.94 C142.26 394.26, 283.65 231.46, 372.98 130.77 M2.04 563.58 C123.64 423.54, 246.89 282.44, 373.37 136.42 M2.04 563.58 C88.19 465.57, 173.58 367.87, 373.37 136.42 M1.78 569.98 C115.72 440.28, 228.67 309.94, 373.11 142.81 M1.78 569.98 C116.56 439.56, 229.26 309.35, 373.11 142.81 M1.52 576.38 C137.49 417.77, 274.37 261.82, 372.85 149.21 M1.52 576.38 C110.93 448.13, 221.74 320.84, 372.85 149.21 M1.92 582.02 C147.59 414.35, 292.44 246.24, 373.25 154.86 M1.92 582.02 C128.7 437.4, 253.89 292.44, 373.25 154.86 M1.65 588.42 C87.11 491.03, 172.46 393.48, 372.98 161.25 M1.65 588.42 C93.99 479.94, 186.71 373.17, 372.98 161.25 M2.05 594.06 C108.09 473.78, 214.6 352.25, 373.38 166.9 M2.05 594.06 C120.32 457.46, 240.34 320.1, 373.38 166.9 M1.79 600.46 C82.3 507.83, 162.56 415.42, 373.12 173.29 M1.79 600.46 C133.19 449.9, 264.57 299.26, 373.12 173.29 M1.53 606.86 C122.28 468.4, 241.78 331.02, 372.86 179.69 M1.53 606.86 C83.91 511.96, 166.37 417.19, 372.86 179.69 M1.92 612.5 C92.68 510.33, 183.84 407.25, 373.25 185.34 M1.92 612.5 C125.86 468.66, 251.6 324.69, 373.25 185.34 M1.66 618.9 C121.35 481.51, 240.21 343.86, 372.99 191.73 M1.66 618.9 C79.14 529.23, 157.39 438.48, 372.99 191.73 M2.05 624.54 C124.51 483.09, 246.15 342.88, 373.38 197.38 M2.05 624.54 C115.33 495.43, 228.65 365.31, 373.38 197.38 M1.79 630.94 C89.94 529.89, 177.38 430.54, 373.12 203.77 M1.79 630.94 C146.19 462.53, 291.53 296.08, 373.12 203.77 M1.53 637.34 C114.99 507.12, 227.35 379.2, 372.86 210.17 M1.53 637.34 C82.57 543.41, 163.93 449.53, 372.86 210.17 M1.93 642.98 C107.51 523.54, 211.7 402.34, 373.25 215.81 M1.93 642.98 C100.67 526.85, 200.98 411.34, 373.25 215.81 M1.66 649.38 C112.82 521.36, 225.06 392.73, 372.99 222.21 M1.66 649.38 C83.08 558.09, 163.59 465.2, 372.99 222.21 M1.4 655.78 C92.93 550.28, 183.79 446.26, 373.39 227.86 M1.4 655.78 C108.11 533.81, 212.37 413.67, 373.39 227.86 M1.8 661.42 C97.74 548.74, 196.97 435.28, 373.13 234.25 M1.8 661.42 C112.1 533.97, 223.27 406.94, 373.13 234.25 M1.54 667.82 C134.37 517.07, 265.32 365.21, 372.87 240.65 M1.54 667.82 C102.59 550.95, 203.57 435.21, 372.87 240.65 M1.93 673.46 C94.02 568.04, 187.38 461.64, 373.26 246.29 M1.93 673.46 C86.93 575.34, 173.19 476.38, 373.26 246.29 M1.67 679.86 C78.03 591.26, 153.66 504.9, 373 252.69 M1.67 679.86 C78.13 591.35, 154.38 504.88, 373 252.69 M1.41 686.26 C115.67 554.87, 230.58 422.7, 373.39 258.33 M1.41 686.26 C97.57 577.49, 192.09 468.24, 373.39 258.33 M1.8 691.9 C93.47 584.27, 186.27 479.44, 373.13 264.73 M1.8 691.9 C97.25 580.83, 193.62 469.45, 373.13 264.73 M1.54 698.3 C80.3 607.53, 160.38 515.74, 372.87 271.13 M1.54 698.3 C136.96 541.01, 272.8 383.71, 372.87 271.13 M1.94 703.94 C111.02 578.7, 218.66 454.25, 373.26 276.77 M1.94 703.94 C130.09 556.66, 256.7 411.1, 373.26 276.77 M1.67 710.34 C129.33 564.07, 255.33 417.97, 373 283.17 M1.67 710.34 C90.34 608.69, 179.2 505.8, 373 283.17 M1.41 716.73 C76.76 629.63, 152.08 543.55, 373.4 288.81 M1.41 716.73 C136.3 562.75, 270.96 408.06, 373.4 288.81 M1.81 722.38 C140.87 562.15, 277.98 404.04, 373.14 295.21 M1.81 722.38 C118.53 590.48, 234.01 457.16, 373.14 295.21 M1.55 728.78 C78.36 642.67, 154.12 554.68, 372.87 301.61 M1.55 728.78 C134.89 576.12, 267.07 423.7, 372.87 301.61 M1.94 734.42 C149 566.29, 295.75 397.4, 373.27 307.25 M1.94 734.42 C108.28 611.65, 214.51 489.58, 373.27 307.25 M1.68 740.82 C141.12 580.26, 281.59 419.25, 373.01 313.65 M1.68 740.82 C138.7 581.18, 277.11 421.59, 373.01 313.65 M1.42 747.21 C80.73 658.21, 157.62 569.53, 372.75 320.05 M1.42 747.21 C89.11 648.92, 176.09 548.85, 372.75 320.05 M1.81 752.86 C135.38 598.62, 270.41 443.72, 373.14 325.69 M1.81 752.86 C144.34 589.92, 285.87 427.14, 373.14 325.69 M1.55 759.26 C85.03 664.03, 167.1 569.85, 372.88 332.09 M1.55 759.26 C111.87 634.87, 221.04 509.74, 372.88 332.09 M1.94 764.9 C96.38 653.22, 193.56 542.49, 373.27 337.73 M1.94 764.9 C138.81 608.93, 274.92 452.16, 373.27 337.73 M1.68 771.3 C129.82 625.7, 257.83 478.27, 373.01 344.13 M1.68 771.3 C138.44 612.15, 276.81 452.69, 373.01 344.13 M1.42 777.69 C119.62 640.89, 238.43 503.52, 372.75 350.53 M1.42 777.69 C87.32 679.29, 172.3 582.55, 372.75 350.53 M1.82 783.34 C115.04 654.5, 226.14 525.73, 373.15 356.17 M1.82 783.34 C91.75 678.87, 181.6 574.6, 373.15 356.17 M1.56 789.73 C97.82 678.2, 195.14 565.7, 372.88 362.57 M1.56 789.73 C107.54 668.66, 214.03 545.52, 372.88 362.57 M1.95 795.38 C121.24 656.13, 241.13 518.67, 373.28 368.21 M1.95 795.38 C92.89 690.9, 184.59 585.59, 373.28 368.21 M1.69 801.78 C131.17 651.88, 260.79 501.01, 373.02 374.61 M1.69 801.78 C141.52 640.82, 282.61 478.09, 373.02 374.61 M1.43 808.17 C93.66 703.06, 184.93 597.43, 372.76 381.01 M1.43 808.17 C145.86 642.97, 289.24 477.03, 372.76 381.01 M1.82 813.82 C119.17 676.3, 238.89 540.28, 373.15 386.65 M1.82 813.82 C135.56 659.28, 269.38 505.05, 373.15 386.65 M1.56 820.21 C80.79 729.82, 160.86 638.9, 372.89 393.05 M1.56 820.21 C90.27 714.6, 181.75 610.18, 372.89 393.05 M1.95 825.86 C94.69 714.83, 189.94 606.88, 373.28 398.69 M1.95 825.86 C149.86 653.97, 297.98 483.92, 373.28 398.69 M1.69 832.25 C141.45 668.83, 282.66 507.74, 373.02 405.09 M1.69 832.25 C97.11 722.03, 191.91 611.96, 373.02 405.09 M1.43 838.65 C111.4 710.8, 223.55 583.85, 372.76 411.49 M1.43 838.65 C106.7 718.02, 211.75 596.74, 372.76 411.49 M1.83 844.3 C76.93 755.3, 154.68 668.3, 373.16 417.13 M1.83 844.3 C89.02 742.73, 176.35 643.44, 373.16 417.13 M1.56 850.69 C132.32 698.65, 264.31 546.79, 372.89 423.53 M1.56 850.69 C119.5 714.14, 237.84 578.41, 372.89 423.53 M1.96 856.34 C136.14 702.47, 269.84 548.19, 373.29 429.17 M1.96 856.34 C95.73 748.11, 189.85 640.1, 373.29 429.17 M1.7 862.73 C143.13 698.86, 284.59 535.47, 373.03 435.57 M1.7 862.73 C85.57 765.68, 169.86 668.85, 373.03 435.57 M1.44 869.13 C84.55 774.16, 166.15 678.79, 372.77 441.97 M1.44 869.13 C132.79 716.58, 265.35 564.24, 372.77 441.97 M1.83 874.78 C113.64 745.08, 225.57 617.21, 373.16 447.61 M1.83 874.78 C92.85 768.69, 185.5 663.11, 373.16 447.61 M1.57 881.17 C139.26 721.57, 275.74 564.12, 372.9 454.01 M1.57 881.17 C95.37 771.57, 190.93 662.34, 372.9 454.01 M1.96 886.82 C109.15 764.93, 213.69 642.8, 373.29 459.65 M1.96 886.82 C92.8 783.83, 181.24 682.2, 373.29 459.65 M2.36 892.46 C112.34 765.45, 225.2 636.14, 373.03 466.05 M2.36 892.46 C86.25 796.46, 170.83 698.94, 373.03 466.05 M3.41 897.35 C103.12 784.25, 201.47 671.3, 372.77 472.45 M3.41 897.35 C142.15 738.32, 280.43 579.25, 372.77 472.45 M4.46 902.24 C120.58 769.67, 234.94 637.28, 373.17 478.09 M4.46 902.24 C83.35 808.25, 163.98 716.1, 373.17 478.09 M6.17 906.37 C95.17 804.33, 184.08 702.98, 372.9 484.49 M6.17 906.37 C96.81 803.45, 186.06 700.11, 372.9 484.49 M8.53 909.75 C85.96 820.48, 164.88 730.19, 373.3 490.13 M8.53 909.75 C132.67 766.93, 255.96 624.63, 373.3 490.13 M11.55 912.37 C138.17 764.64, 265.08 617.43, 373.04 496.53 M11.55 912.37 C140.48 764.69, 269.02 616.37, 373.04 496.53 M14.57 915 C92.39 823.33, 171.32 731.76, 372.78 502.93 M14.57 915 C145.92 763.76, 277.93 611.59, 372.78 502.93 M18.9 916.11 C94.08 829.98, 168.42 744.12, 373.17 508.57 M18.9 916.11 C103.58 818.24, 187.17 721.66, 373.17 508.57 M22.57 917.98 C111.5 816.65, 200.65 713.64, 372.91 514.97 M22.57 917.98 C111.58 814.22, 201.7 710.61, 372.91 514.97 M26.9 919.1 C158.55 765.48, 290.91 612.38, 373.3 520.61 M26.9 919.1 C141.67 787.84, 255.38 657.06, 373.3 520.61 M32.55 918.7 C116.81 820.19, 200.85 723.7, 373.04 527.01 M32.55 918.7 C105.28 835.94, 177.82 752.62, 373.04 527.01 M38.19 918.31 C133.75 808.6, 229.28 697.84, 372.78 533.41 M38.19 918.31 C135.86 806.15, 233.93 694.03, 372.78 533.41 M43.18 918.67 C121.35 827.82, 200.17 737.31, 373.17 539.05 M43.18 918.67 C117.12 835.13, 189.91 751.22, 373.17 539.05 M48.82 918.27 C149.73 803.25, 248.91 687.9, 372.91 545.45 M48.82 918.27 C145.18 806.62, 243.31 694.02, 372.91 545.45 M53.81 918.63 C140.44 816.65, 228.85 714.9, 373.31 551.09 M53.81 918.63 C157.89 798.54, 263.02 677.37, 373.31 551.09 M59.45 918.24 C148.39 816.02, 235.96 715.32, 373.05 557.49 M59.45 918.24 C170.85 791.41, 281.53 663.47, 373.05 557.49 M64.44 918.6 C159.68 808.01, 255.18 697.94, 372.79 563.88 M64.44 918.6 C171.62 794.37, 279.2 670.04, 372.79 563.88 M70.08 918.2 C129.3 847.96, 189.75 778.6, 373.18 569.53 M70.08 918.2 C180.12 793.62, 288.93 667.13, 373.18 569.53 M75.07 918.56 C167.58 813.47, 259.1 706.96, 372.92 575.93 M75.07 918.56 C186.48 792.89, 296 666.59, 372.92 575.93 M80.71 918.17 C174.56 808.29, 269.95 700.3, 373.31 581.57 M80.71 918.17 C155 834.07, 228.52 749.47, 373.31 581.57 M85.7 918.53 C184.38 807.23, 281.28 694.99, 373.05 587.97 M85.7 918.53 C153.21 839.75, 220.6 762.53, 373.05 587.97 M91.34 918.13 C165 833.46, 237.74 750.72, 372.79 594.36 M91.34 918.13 C164.56 831.76, 239.33 745.43, 372.79 594.36 M96.33 918.49 C175.8 831.36, 252.29 741.19, 373.18 600.01 M96.33 918.49 C170.29 833.92, 242.4 750.64, 373.18 600.01 M101.97 918.1 C180.13 831.81, 254.68 744.53, 372.92 606.4 M101.97 918.1 C175.56 832.4, 249.95 746.67, 372.92 606.4 M106.96 918.46 C193.15 819.86, 275.79 721.95, 373.32 612.05 M106.96 918.46 C198.49 815.68, 288.31 712.16, 373.32 612.05 M112.6 918.07 C167.28 855.88, 221.91 792.73, 373.06 618.45 M112.6 918.07 C178.56 842.84, 244.35 768.2, 373.06 618.45 M117.59 918.43 C180.4 846.12, 242.79 775.24, 372.79 624.84 M117.59 918.43 C173.29 854.97, 227.37 791.89, 372.79 624.84 M122.57 918.79 C207.85 822.99, 292.81 725.93, 373.19 630.49 M122.57 918.79 C223.65 805.71, 323.34 690.52, 373.19 630.49 M128.22 918.39 C215.63 817.65, 305.9 713.91, 372.93 636.88 M128.22 918.39 C179.93 860.04, 230.34 802.98, 372.93 636.88 M133.21 918.75 C207.09 836.45, 278.38 751.32, 373.32 642.53 M133.21 918.75 C188.02 857.2, 241.94 794.64, 373.32 642.53 M138.85 918.36 C228.55 815.04, 317.37 712.47, 373.06 648.93 M138.85 918.36 C207.68 836.55, 278.47 755, 373.06 648.93 M143.84 918.72 C193.21 862.56, 241.01 807.42, 372.8 655.32 M143.84 918.72 C207.1 847.11, 268.56 774.69, 372.8 655.32 M149.48 918.32 C219.73 834.58, 292.36 755.17, 373.19 660.97 M149.48 918.32 C203.55 854.6, 260.4 789.8, 373.19 660.97 M154.47 918.68 C222 842.01, 292.13 761.27, 372.93 667.36 M154.47 918.68 C236.43 824.25, 318.59 729.07, 372.93 667.36 M160.11 918.29 C244.63 821.89, 327.17 723.99, 373.33 673.01 M160.11 918.29 C219.57 850.93, 278.05 783.47, 373.33 673.01 M165.1 918.65 C232.73 840.99, 302.55 760.64, 373.07 679.4 M165.1 918.65 C209.03 867.98, 253.86 816.13, 373.07 679.4 M170.74 918.25 C239.91 836.68, 311.93 756.61, 372.8 685.8 M170.74 918.25 C243.44 833.49, 317.51 748.65, 372.8 685.8 M175.73 918.61 C243.17 843.83, 310.54 764.84, 373.2 691.45 M175.73 918.61 C246.94 835.18, 320.15 751.31, 373.2 691.45 M181.37 918.22 C243.78 845.27, 304.57 776.39, 372.94 697.84 M181.37 918.22 C252.45 836.47, 324.43 755.29, 372.94 697.84 M186.36 918.58 C233.98 862.63, 282.69 805.67, 373.33 703.49 M186.36 918.58 C229.47 869.67, 271.49 820.07, 373.33 703.49 M192 918.18 C257.17 843.18, 319.75 770.23, 373.07 709.88 M192 918.18 C250.39 853, 307.52 787.08, 373.07 709.88 M196.99 918.54 C231.02 876.4, 268.22 837.27, 372.81 716.28 M196.99 918.54 C252.68 852.86, 309.32 788.99, 372.81 716.28 M202.63 918.15 C256.43 856.51, 308.34 794.72, 373.2 721.93 M202.63 918.15 C251.61 863.31, 299.51 805.75, 373.2 721.93 M207.62 918.51 C257.07 862.09, 307.96 806.48, 372.94 728.32 M207.62 918.51 C272.78 844.57, 334.74 772.4, 372.94 728.32 M213.26 918.12 C270.85 852.53, 327.07 786.45, 373.34 733.97 M213.26 918.12 C269.48 855.24, 324.5 791.59, 373.34 733.97 M218.25 918.48 C257.66 871.39, 297.04 826.93, 373.08 740.36 M218.25 918.48 C259.23 871.6, 298.44 824.92, 373.08 740.36 M223.89 918.08 C261.46 876.05, 299.41 834.63, 372.81 746.76 M223.89 918.08 C255.35 881.03, 285.47 846.6, 372.81 746.76 M228.88 918.44 C263.91 878.05, 299.17 840.04, 373.21 752.4 M228.88 918.44 C261.56 879.66, 292.52 842.57, 373.21 752.4 M233.86 918.8 C273.91 873.8, 311.52 829.64, 372.95 758.8 M233.86 918.8 C283.52 860.73, 335.01 802.42, 372.95 758.8 M239.51 918.41 C289.33 862.82, 338.75 804.06, 373.34 764.45 M239.51 918.41 C276.19 877.56, 311.49 838.08, 373.34 764.45 M244.49 918.77 C290.36 869.34, 330.46 820.68, 373.08 770.84 M244.49 918.77 C295.24 863.72, 344 806.23, 373.08 770.84 M250.14 918.37 C278.74 885.57, 307.17 852.45, 372.82 777.24 M250.14 918.37 C296.27 865.65, 343.43 811.27, 372.82 777.24 M255.12 918.73 C281.78 888.02, 305.34 860.54, 373.21 782.88 M255.12 918.73 C300.05 867.63, 344.4 817.47, 373.21 782.88 M260.77 918.34 C300.7 875.03, 339.22 827.59, 372.95 789.28 M260.77 918.34 C294.76 878.86, 325.68 842.49, 372.95 789.28 M265.75 918.7 C299.98 880.72, 332.08 841.79, 373.35 794.93 M265.75 918.7 C302.32 877.21, 339.2 835.77, 373.35 794.93 M271.4 918.3 C304.65 880.44, 340.29 843.25, 373.09 801.32 M271.4 918.3 C305.63 878.12, 340.29 839.99, 373.09 801.32 M276.38 918.66 C310.42 879.01, 341.08 845.62, 372.82 807.72 M276.38 918.66 C299.58 892.01, 320.99 867.47, 372.82 807.72 M282.03 918.27 C312.04 885.31, 340.92 852.37, 373.22 813.36 M282.03 918.27 C317.57 878.75, 351.51 837.55, 373.22 813.36 M287.01 918.63 C306.32 900.28, 322.37 878.51, 372.96 819.76 M287.01 918.63 C310.5 889.65, 334.28 862.43, 372.96 819.76 M292.66 918.23 C317.11 890.4, 343.55 860.66, 373.35 825.4 M292.66 918.23 C315.66 892.45, 338.92 865.24, 373.35 825.4 M297.64 918.59 C323.86 884.58, 350.96 853.39, 373.09 831.8 M297.64 918.59 C318.44 893.37, 338.98 869.79, 373.09 831.8 M303.29 918.2 C326.7 892.82, 348.64 869.31, 372.83 838.2 M303.29 918.2 C320.02 897.85, 338.11 878.98, 372.83 838.2 M308.27 918.56 C322.82 900.34, 340.39 881.07, 373.22 843.84 M308.27 918.56 C326.51 897.9, 344.48 876.57, 373.22 843.84 M313.92 918.16 C333.02 894.31, 352.44 872.94, 372.96 850.24 M313.92 918.16 C328.77 900.66, 343.76 883.42, 372.96 850.24 M318.9 918.52 C340.24 896.7, 358.48 875.32, 373.36 855.88 M318.9 918.52 C338.06 897.34, 355.63 876.57, 373.36 855.88 M324.55 918.13 C342.9 901.39, 359.07 882.25, 373.1 862.28 M324.55 918.13 C336.48 903.81, 349.73 890.46, 373.1 862.28 M329.53 918.49 C340.32 903.71, 354.63 890.46, 372.83 868.68 M329.53 918.49 C343.31 903.49, 356.38 886.14, 372.83 868.68 M335.18 918.1 C351.06 900.37, 364.61 883.18, 373.23 874.32 M335.18 918.1 C349 902.18, 364.28 885.06, 373.23 874.32 M340.16 918.46 C348.26 909.03, 359.46 895.7, 372.97 880.72 M340.16 918.46 C349.57 906.14, 359.94 895.84, 372.97 880.72 M346.46 917.31 C351.37 909.15, 360.55 902.31, 372.71 887.12 M346.46 917.31 C354.54 909.59, 361.91 900.16, 372.71 887.12 M352.76 916.16 C361.22 906.21, 367.29 896.96, 371.79 894.27 M352.76 916.16 C359.7 907.87, 367.46 899.11, 371.79 894.27 M356.44 918.03 C357.96 915.66, 360 912.6, 367.59 905.2 M356.44 918.03 C360.05 915.45, 362.4 912.16, 367.59 905.2" stroke="#ced4da" stroke-width="0.5" fill="none"></path><path d="M32 0 M32 0 C97.46 -0.87, 162.35 -0.24, 339.79 0 M32 0 C129.29 -1.51, 224.62 -0.92, 339.79 0 M339.79 0 C361.39 -1.68, 370.22 11.57, 371.79 32 M339.79 0 C360.45 1.81, 369.72 9.8, 371.79 32 M371.79 32 C371.68 272.56, 371.67 513.62, 371.79 885.74 M371.79 32 C374.89 336.84, 374.42 641.84, 371.79 885.74 M371.79 885.74 C371.65 906.43, 361.72 917.26, 339.79 917.74 M371.79 885.74 C372.94 904.9, 362.94 918.84, 339.79 917.74 M339.79 917.74 C259.46 919.49, 176.92 920.04, 32 917.74 M339.79 917.74 C217.16 915.39, 95.85 916.17, 32 917.74 M32 917.74 C9.1 916.76, -1.24 906.52, 0 885.74 M32 917.74 C10.1 916.43, 1.08 905.73, 0 885.74 M0 885.74 C0.37 615.67, 1.02 346.83, 0 32 M0 885.74 C-0.29 660.23, -0.54 435.66, 0 32 M0 32 C0.23 11.86, 9.37 1.72, 32 0 M0 32 C0.42 11.75, 12.26 -1.15, 32 0" stroke="#000000" stroke-width="1" fill="none"></path></g><g stroke-opacity="0.2" fill-opacity="0.2" stroke-linecap="round" transform="translate(10.951171875 606.919921875) rotate(0 185.060546875 54.30859375)"><path d="M26.92 -1.58 L342.1 -0.4 L355.31 0.96 L364.3 5.48 L366.38 9.95 L370.77 21.04 L368.96 82.68 L369.92 93.59 L364.43 98.78 L359.96 105.8 L353.33 108.16 L341.25 109.8 L28.75 107.83 L14.81 108.69 L7.1 100.44 L2.7 98.14 L1.06 88.52 L-0.44 20.73 L3.56 8.69 L11.92 5.06 L20.72 1.16 L25.7 -1.59" stroke="none" stroke-width="0" fill="#228be6"></path><path d="M27.15 0 M27.15 0 C99.8 1.12, 175.28 1.76, 342.97 0 M342.97 0 C362.63 1.56, 372.07 9.44, 370.12 27.15 M370.12 27.15 C368.13 37.4, 368.99 48.4, 370.12 81.46 M370.12 81.46 C371.74 101.06, 360.52 110.5, 342.97 108.62 M342.97 108.62 C280.35 111.38, 215.43 110.36, 27.15 108.62 M27.15 108.62 C10.4 108.18, 1.62 99.06, 0 81.46 M0 81.46 C-1.46 67.23, -1.03 55.56, 0 27.15 M0 27.15 C0.3 8.39, 9.12 -1.6, 27.15 0" stroke="#000000" stroke-width="1.5" fill="none" stroke-dasharray="8 9"></path></g><g stroke-opacity="0.4" fill-opacity="0.4" stroke-linecap="round" transform="translate(10.875 96.16796875) rotate(0 185.29296875 7.14453125)"><path d="M4.85 0.42 L368.98 -1.17 L368.87 2.34 L370.11 12.62 L368.23 12.09 L368.3 16.06 L2.58 16.03 L0.7 11.89 L1.9 11.56 L1.2 2.28 L3.08 -1.46" stroke="none" stroke-width="0" fill="#ced4da"></path><path d="M3.57 0 M3.57 0 C75.98 0.41, 150.61 -0.65, 367.01 0 M3.57 0 C106.53 2.46, 209.2 1.73, 367.01 0 M367.01 0 C370.93 0.48, 369.5 0.43, 370.59 3.57 M367.01 0 C368.86 -0.38, 369.42 1.75, 370.59 3.57 M370.59 3.57 C370.77 6.11, 370.18 7.54, 370.59 10.72 M370.59 3.57 C370.35 6.39, 370.43 8.91, 370.59 10.72 M370.59 10.72 C370.31 14.85, 368 15.29, 367.01 14.29 M370.59 10.72 C372.08 12.64, 368.59 13.54, 367.01 14.29 M367.01 14.29 C239.22 16.02, 109.52 16.68, 3.57 14.29 M367.01 14.29 C270.87 14.87, 175.42 15.65, 3.57 14.29 M3.57 14.29 C2 12.69, 1.3 13.29, 0 10.72 M3.57 14.29 C2.77 12.1, 1.45 14.52, 0 10.72 M0 10.72 C0.63 9.43, -0.48 7.48, 0 3.57 M0 10.72 C-0.19 7.9, -0.22 5.71, 0 3.57 M0 3.57 C1.14 0.47, 2.66 0.25, 3.57 0 M0 3.57 C-0.78 2.69, -0.56 1.2, 3.57 0" stroke="#000000" stroke-width="1" fill="none"></path></g><g stroke-opacity="0.4" fill-opacity="0.4" stroke-linecap="round" transform="translate(12.74609375 31.37109375) rotate(0 185.29296875 7.46875)"><path d="M4.61 -0.94 L365.26 0 L369.91 2.84 L371.97 10.86 L369.91 14.2 L368.43 15.15 L3.16 14.2 L-0.8 13.92 L0.65 10.3 L1.11 3.47 L4.43 -1.76" stroke="none" stroke-width="0" fill="#ced4da"></path><path d="M3.73 0 M3.73 0 C93.49 0.82, 186.09 -0.63, 366.85 0 M3.73 0 C98.17 -1.87, 191.74 -1.3, 366.85 0 M366.85 0 C369.98 1.14, 370.22 2.96, 370.59 3.73 M366.85 0 C367.7 1.8, 371.15 0.55, 370.59 3.73 M370.59 3.73 C370.1 5.35, 369.94 8.97, 370.59 11.2 M370.59 3.73 C370.47 6.53, 370.33 9.05, 370.59 11.2 M370.59 11.2 C370.92 14.46, 370.38 16.62, 366.85 14.94 M370.59 11.2 C371.69 14.92, 367.76 16.77, 366.85 14.94 M366.85 14.94 C242.97 12.58, 120.49 14.09, 3.73 14.94 M366.85 14.94 C287.44 16.09, 207.7 16.47, 3.73 14.94 M3.73 14.94 C0.55 16.01, -1.88 14.41, 0 11.2 M3.73 14.94 C-0.29 14.84, -0.97 13.86, 0 11.2 M0 11.2 C-0.46 8.99, -0.24 6.51, 0 3.73 M0 11.2 C-0.06 8.03, -0.2 4.94, 0 3.73 M0 3.73 C-0.66 2.65, 1.91 -0.12, 3.73 0 M0 3.73 C1.78 3.35, -0.98 0.42, 3.73 0" stroke="#000000" stroke-width="1" fill="none"></path></g><g stroke-opacity="0.6" fill-opacity="0.6" transform="translate(25.7265625 64.90625) rotate(0 42 10)"><text x="0" y="14" font-family="Virgil, Segoe UI Emoji" font-size="16px" fill="#000000" text-anchor="start" style="white-space: pre;" direction="ltr">0101010010</text></g><g transform="translate(103.23046875 229.7109375) rotate(0 97.5 12.5)"><text x="0" y="18" font-family="Virgil, Segoe UI Emoji" font-size="20px" fill="#000000" text-anchor="start" style="white-space: pre;" direction="ltr">Zone 0 User Pages</text></g><g stroke-opacity="0.4" fill-opacity="0.4" stroke-linecap="round" transform="translate(10 263.78125) rotate(0 185.29296875 6.142578125)"><path d="M2.89 -0.09 L369.14 1.96 L369 1.43 L371.04 9.54 L370.11 13.48 L367.88 11.33 L2.85 13.84 L0.87 11.92 L1.14 7.9 L-1.25 2.76 L2.68 0.9" stroke="none" stroke-width="0" fill="#ced4da"></path><path d="M3.07 0 M3.07 0 C127.38 0.51, 249.27 0.83, 367.51 0 M3.07 0 C103.15 -1.7, 203.41 -2.61, 367.51 0 M367.51 0 C368.97 0.64, 370.49 0.24, 370.59 3.07 M367.51 0 C367.49 -1.67, 370.85 0.89, 370.59 3.07 M370.59 3.07 C371.18 5.22, 370.35 6.32, 370.59 9.21 M370.59 3.07 C370.59 4.96, 370.5 7.1, 370.59 9.21 M370.59 9.21 C372.02 12.14, 368.31 10.67, 367.51 12.29 M370.59 9.21 C370.14 10.31, 368.17 13.56, 367.51 12.29 M367.51 12.29 C268.54 13.12, 170.22 12.61, 3.07 12.29 M367.51 12.29 C238.81 10.42, 111.07 10.89, 3.07 12.29 M3.07 12.29 C0.07 14.09, 0.24 11.16, 0 9.21 M3.07 12.29 C2.27 12.97, 1.61 12.61, 0 9.21 M0 9.21 C0.6 7.9, 0.34 5.03, 0 3.07 M0 9.21 C0.24 7.71, 0.19 6.2, 0 3.07 M0 3.07 C-0.91 2.04, 2.62 -1.3, 3.07 0 M0 3.07 C-1.98 1.06, 1.26 -1.7, 3.07 0" stroke="#000000" stroke-width="1" fill="none"></path></g><g stroke-opacity="0.4" fill-opacity="0.4" stroke-linecap="round" transform="translate(11.31640625 206.0390625) rotate(0 185.29296875 4.9765625)"><path d="M3.62 -0.18 L366.36 -1.26 L369.58 4.1 L370.24 5.85 L367.18 11.54 L4.46 9.96 L0.14 5.85 L-0.12 1.57 L1.72 1.79" stroke="none" stroke-width="0" fill="#ced4da"></path><path d="M2.49 0 M2.49 0 C99.37 -2.18, 197.93 -2.33, 368.1 0 M2.49 0 C100.42 -0.23, 197.81 0.26, 368.1 0 M368.1 0 C368.93 -0.32, 372.19 0.91, 370.59 2.49 M368.1 0 C367.91 1.59, 370.26 2.2, 370.59 2.49 M370.59 2.49 C370.64 3.6, 370.43 5.21, 370.59 7.46 M370.59 2.49 C370.69 3.75, 370.55 4.69, 370.59 7.46 M370.59 7.46 C372.43 10.92, 369.38 10.93, 368.1 9.95 M370.59 7.46 C370.4 8.77, 369.3 9.56, 368.1 9.95 M368.1 9.95 C223.24 10.23, 77.91 12.53, 2.49 9.95 M368.1 9.95 C249.12 7.88, 128.67 8.12, 2.49 9.95 M2.49 9.95 C1.58 8.63, 1.8 9.45, 0 7.46 M2.49 9.95 C2.66 7.96, 1.12 7.4, 0 7.46 M0 7.46 C-0.22 5.86, -0.07 4.47, 0 2.49 M0 7.46 C-0.27 6.01, 0.01 4.38, 0 2.49 M0 2.49 C1.49 -0.78, -0.28 1.82, 2.49 0 M0 2.49 C-1.71 1.37, 0.53 -1.34, 2.49 0" stroke="#000000" stroke-width="1" fill="none"></path></g><g stroke-linecap="round"><g stroke-opacity="0.5" fill-opacity="0.5" transform="translate(44.82153148739695 87.77189853984714) rotate(0 1.544440447734047 75.67231342132729)"><path d="M0.58 -1.08 C0.92 24.35, 2.52 126.89, 2.51 152.43" stroke="#000000" stroke-width="1.5" fill="none" stroke-dasharray="8 9"></path></g><g stroke-opacity="0.5" fill-opacity="0.5" transform="translate(44.82153148739695 87.77189853984714) rotate(0 1.544440447734047 75.67231342132729)"><path d="M2.27 153.28 L-4.91 139.93 L10.52 138.88 L2.48 152.44" stroke="none" stroke-width="0" fill="#000000" fill-rule="evenodd"></path><path d="M1.16 153.54 C-0.34 146.48, -2.88 144.75, -3.83 139.45 M-4.2 139.18 C-0.99 138.85, 4.24 137.95, 8.17 139.13 M7.28 138.77 C7.88 143.37, 4.8 147.8, 1.45 151.12 M2.51 152.43 C2.51 152.43, 2.51 152.43, 2.51 152.43" stroke="#000000" stroke-width="1.5" fill="none"></path></g></g><mask></mask><g stroke-opacity="0.4" fill-opacity="0.4" stroke-linecap="round" transform="translate(399.01953125 66.333984375) rotate(0 45.828125 7.595703125)"><path d="M4.02 -0.97 L89.26 1.99 L92.3 3.85 L93.5 9.51 L89.14 12.83 L89.29 14.45 L5.72 15.57 L1.97 13.82 L1.53 10.58 L1.87 1.71 L2.4 -1.58" stroke="none" stroke-width="0" fill="#ced4da"></path><path d="M3.8 0 M3.8 0 C21.39 -1.04, 41.58 -1.5, 87.86 0 M3.8 0 C32.32 0.65, 59.47 0.28, 87.86 0 M87.86 0 C89.49 1.2, 90.48 1.59, 91.66 3.8 M87.86 0 C88.38 -1.16, 91.43 1.47, 91.66 3.8 M91.66 3.8 C91.98 6.37, 91.27 9.94, 91.66 11.39 M91.66 3.8 C91.89 7.06, 91.94 9.77, 91.66 11.39 M91.66 11.39 C92.38 13.93, 90.31 13.83, 87.86 15.19 M91.66 11.39 C90.19 16.12, 89.16 13.96, 87.86 15.19 M87.86 15.19 C71.76 16.14, 52.77 16.82, 3.8 15.19 M87.86 15.19 C64.91 15.97, 41.6 14.66, 3.8 15.19 M3.8 15.19 C0.31 14.32, -1.83 15.7, 0 11.39 M3.8 15.19 C-0.26 14.58, 2.17 11.89, 0 11.39 M0 11.39 C0.07 8.51, -0.58 7.02, 0 3.8 M0 11.39 C0.39 8.68, -0.03 6.33, 0 3.8 M0 3.8 C0.71 0.38, 2.34 1.15, 3.8 0 M0 3.8 C-1.7 -0.05, 1.41 -0.02, 3.8 0" stroke="#000000" stroke-width="1" fill="none"></path></g><g stroke-opacity="0.4" fill-opacity="0.4" stroke-linecap="round" transform="translate(12.859375 349.630859375) rotate(0 185.29296875 5.66796875)"><path d="M4.23 1.88 L369.09 1.15 L369.14 -0.21 L372.47 8.08 L371.82 9.75 L365.95 12.92 L4.25 11.7 L-0.18 11.81 L-1.1 8.28 L1.95 3.17 L4.3 -0.6" stroke="none" stroke-width="0" fill="#ced4da"></path><path d="M2.83 0 M2.83 0 C142.85 -0.28, 283.19 1.08, 367.75 0 M2.83 0 C114.38 1.35, 225.89 1.18, 367.75 0 M367.75 0 C368.86 1.77, 372.57 1.13, 370.59 2.83 M367.75 0 C370.16 -2.1, 369.14 2.27, 370.59 2.83 M370.59 2.83 C371 4.6, 370.8 6.68, 370.59 8.5 M370.59 2.83 C370.52 3.73, 370.65 5.41, 370.59 8.5 M370.59 8.5 C372.04 8.84, 370.94 10.29, 367.75 11.34 M370.59 8.5 C370.78 9.26, 371.29 12.31, 367.75 11.34 M367.75 11.34 C233.09 12.23, 99.35 12.35, 2.83 11.34 M367.75 11.34 C246.56 9.28, 126.19 9.76, 2.83 11.34 M2.83 11.34 C1.76 9.48, 0.5 9.51, 0 8.5 M2.83 11.34 C1.17 10.56, 1.52 10.34, 0 8.5 M0 8.5 C0.19 6.45, 0.52 4.41, 0 2.83 M0 8.5 C-0.14 7.18, -0.08 6.07, 0 2.83 M0 2.83 C-0.9 -0.5, 1.3 1.21, 2.83 0 M0 2.83 C1.38 1.52, 3.16 0.92, 2.83 0" stroke="#000000" stroke-width="1" fill="none"></path></g><g transform="translate(98.84765625 369.3671875) rotate(0 105 12.5)"><text x="0" y="18" font-family="Virgil, Segoe UI Emoji" font-size="20px" fill="#000000" text-anchor="start" style="white-space: pre;" direction="ltr">Big Zone User Pages</text></g><g stroke-opacity="0.4" fill-opacity="0.4" stroke-linecap="round" transform="translate(12.48828125 397.689453125) rotate(0 185.29296875 4.841796875)"><path d="M1.53 0.23 L366.89 0.65 L370.46 0.48 L372.35 6.46 L368.93 9.17 L0.65 8.2 L1.04 5.53 L0.62 -1.15 L3.94 -1.22" stroke="none" stroke-width="0" fill="#ced4da"></path><path d="M2.42 0 M2.42 0 C134.47 0.43, 266.09 0.33, 368.17 0 M2.42 0 C110.37 -1.41, 218.4 -1.56, 368.17 0 M368.17 0 C370.27 -1.88, 370.77 -1.13, 370.59 2.42 M368.17 0 C369.6 -1.69, 371.17 0.43, 370.59 2.42 M370.59 2.42 C370.71 3.73, 370.31 5.16, 370.59 7.26 M370.59 2.42 C370.38 3.63, 370.69 4.97, 370.59 7.26 M370.59 7.26 C370.37 8.73, 369.64 8.17, 368.17 9.68 M370.59 7.26 C370.59 8.66, 367.62 10.32, 368.17 9.68 M368.17 9.68 C249.34 12.08, 130.86 12.08, 2.42 9.68 M368.17 9.68 C256.41 8.71, 145.4 8.97, 2.42 9.68 M2.42 9.68 C1.16 8.72, 1.98 10.77, 0 7.26 M2.42 9.68 C-1.31 7.81, -0.19 9.64, 0 7.26 M0 7.26 C0.45 5.49, 0.42 4.15, 0 2.42 M0 7.26 C-0.2 5.23, 0.13 3.29, 0 2.42 M0 2.42 C0.42 0.69, -0.04 1.84, 2.42 0 M0 2.42 C1.55 -1.39, 2.17 1.21, 2.42 0" stroke="#000000" stroke-width="1" fill="none"></path></g><g stroke-opacity="0.4" fill-opacity="0.4" stroke-linecap="round" transform="translate(11.36328125 592.146484375) rotate(0 185.29296875 5.490234375)"><path d="M0.87 -0.74 L369.4 1.06 L371.63 0.84 L369.99 8.11 L368.13 12.04 L3.45 10.26 L-0.67 8.44 L-0.5 1.6 L4.29 1.18" stroke="none" stroke-width="0" fill="#ced4da"></path><path d="M2.75 0 M2.75 0 C98.06 0.17, 194.3 -0.86, 367.84 0 M2.75 0 C143.11 1.41, 281.93 0.81, 367.84 0 M367.84 0 C370.19 -1.99, 370.84 1.82, 370.59 2.75 M367.84 0 C369.09 0.99, 371.33 -1.28, 370.59 2.75 M370.59 2.75 C370.23 3.61, 370.06 5.06, 370.59 8.24 M370.59 2.75 C370.66 4, 370.43 5.41, 370.59 8.24 M370.59 8.24 C369.14 9.52, 371.34 10.95, 367.84 10.98 M370.59 8.24 C368.7 9.56, 371.13 10.61, 367.84 10.98 M367.84 10.98 C267.29 10.25, 164.76 10.08, 2.75 10.98 M367.84 10.98 C276.78 9.9, 186.27 8.85, 2.75 10.98 M2.75 10.98 C2.39 12.76, -1.7 8.3, 0 8.24 M2.75 10.98 C1.23 10.35, -1.8 8.8, 0 8.24 M0 8.24 C-0.41 6.6, -0.14 5.34, 0 2.75 M0 8.24 C-0.18 6.2, -0.17 4.55, 0 2.75 M0 2.75 C0.04 0.9, 2.59 -0.32, 2.75 0 M0 2.75 C1.78 -0.93, 0.17 -1.74, 2.75 0" stroke="#000000" stroke-width="1" fill="none"></path></g><g stroke-opacity="0.4" fill-opacity="0.4" stroke-linecap="round" transform="translate(12.26171875 718.275390625) rotate(0 185.29296875 4.748046875)"><path d="M2.12 1.84 L367.85 -1.59 L370.78 3.8 L371.31 6.62 L367.55 11.41 L2.92 11.41 L1.01 5.12 L1.24 3.65 L1.59 0.72" stroke="none" stroke-width="0" fill="#ced4da"></path><path d="M2.37 0 M2.37 0 C77.61 0.97, 154.78 -0.14, 368.21 0 M2.37 0 C109.83 -2.06, 217.34 -1.03, 368.21 0 M368.21 0 C370.28 -1.43, 369.12 1.5, 370.59 2.37 M368.21 0 C368.19 -0.04, 369.05 1.75, 370.59 2.37 M370.59 2.37 C370.81 3.71, 370.7 4.38, 370.59 7.12 M370.59 2.37 C370.65 3.45, 370.64 4.76, 370.59 7.12 M370.59 7.12 C371.56 8.87, 371.13 11.14, 368.21 9.5 M370.59 7.12 C369.11 7.1, 368.96 11.58, 368.21 9.5 M368.21 9.5 C231.3 10.58, 94.5 12.15, 2.37 9.5 M368.21 9.5 C236.33 9.61, 105.62 9.95, 2.37 9.5 M2.37 9.5 C2.69 9.18, 1.81 7.73, 0 7.12 M2.37 9.5 C-0.88 11.27, 0.72 10.01, 0 7.12 M0 7.12 C0.23 5.69, -0.27 3.33, 0 2.37 M0 7.12 C0.18 5.51, -0.22 3.33, 0 2.37 M0 2.37 C-1.9 1.89, 2.75 -1.66, 2.37 0 M0 2.37 C1.53 -0.63, -0.04 -2.11, 2.37 0" stroke="#000000" stroke-width="1" fill="none"></path></g><g transform="translate(122.99609375 614.87890625) rotate(0 84.5 50)"><text x="84.5" y="18" font-family="Virgil, Segoe UI Emoji" font-size="20px" fill="#000000" text-anchor="middle" style="white-space: pre;" direction="ltr">IsoAlloc Root</text><text x="84.5" y="43" font-family="Virgil, Segoe UI Emoji" font-size="20px" fill="#000000" text-anchor="middle" style="white-space: pre;" direction="ltr">big zone free list</text><text x="84.5" y="68" font-family="Virgil, Segoe UI Emoji" font-size="20px" fill="#000000" text-anchor="middle" style="white-space: pre;" direction="ltr">..</text><text x="84.5" y="93" font-family="Virgil, Segoe UI Emoji" font-size="20px" fill="#000000" text-anchor="middle" style="white-space: pre;" direction="ltr">zones</text></g><g transform="translate(389.6953125 81.19140625) rotate(0 59.5 25)"><text x="59.5" y="18" font-family="Virgil, Segoe UI Emoji" font-size="20px" fill="#000000" text-anchor="middle" style="white-space: pre;" direction="ltr">=</text><text x="59.5" y="43" font-family="Virgil, Segoe UI Emoji" font-size="20px" fill="#000000" text-anchor="middle" style="white-space: pre;" direction="ltr">Guard Page</text></g><g stroke-opacity="0.4" fill-opacity="0.4" stroke-linecap="round" transform="translate(10.55078125 469.185546875) rotate(0 185.29296875 4.841796875)"><path d="M3.18 -1.99 L368.09 0.87 L368.17 2.4 L369.58 5.48 L368.77 8.52 L3.87 8.96 L-0.6 7.09 L1.71 1.68 L3.72 1.64" stroke="none" stroke-width="0" fill="#ced4da"></path><path d="M2.42 0 M2.42 0 C115.16 1.2, 225.55 0.65, 368.17 0 M2.42 0 C148.32 1.23, 292.86 1.21, 368.17 0 M368.17 0 C369.61 1.84, 371.59 -0.76, 370.59 2.42 M368.17 0 C369.07 0.22, 372.01 -0.1, 370.59 2.42 M370.59 2.42 C370.72 4.5, 370.32 5.87, 370.59 7.26 M370.59 2.42 C370.81 3.69, 370.51 5.27, 370.59 7.26 M370.59 7.26 C369.45 9.59, 370.27 10.5, 368.17 9.68 M370.59 7.26 C370.41 8.64, 369.31 9, 368.17 9.68 M368.17 9.68 C284.43 9.99, 199.05 9.25, 2.42 9.68 M368.17 9.68 C228.95 10.84, 88.16 10.54, 2.42 9.68 M2.42 9.68 C1.25 11.05, 0.5 7.31, 0 7.26 M2.42 9.68 C1.82 11.3, -0.71 8.74, 0 7.26 M0 7.26 C0.09 5.77, 0.33 3.96, 0 2.42 M0 7.26 C-0.01 5.31, 0.14 3.73, 0 2.42 M0 2.42 C-1.4 1.5, -1.01 0.89, 2.42 0 M0 2.42 C-0.41 2.37, 1.68 -0.26, 2.42 0" stroke="#000000" stroke-width="1" fill="none"></path></g><g transform="translate(97.91796875 488.58203125) rotate(0 106 12.5)"><text x="0" y="18" font-family="Virgil, Segoe UI Emoji" font-size="20px" fill="#000000" text-anchor="start" style="white-space: pre;" direction="ltr">Big Zone Meta Data</text></g><g stroke-opacity="0.4" fill-opacity="0.4" stroke-linecap="round" transform="translate(11.0625 516.681640625) rotate(0 185.29296875 4.841796875)"><path d="M1.29 -1.73 L368.55 -0.23 L371.31 -1.32 L370.53 8.63 L367.37 10.91 L2.52 9.96 L0.94 9.18 L-0.7 2.59 L2.71 -1.53" stroke="none" stroke-width="0" fill="#ced4da"></path><path d="M2.42 0 M2.42 0 C110.46 2.05, 220.28 2.88, 368.17 0 M2.42 0 C136 1.57, 269.15 1.71, 368.17 0 M368.17 0 C370.1 -0.48, 371.62 -0.92, 370.59 2.42 M368.17 0 C371.31 -0.14, 370.95 2.17, 370.59 2.42 M370.59 2.42 C371.06 3.55, 370.5 4.37, 370.59 7.26 M370.59 2.42 C370.72 3.42, 370.41 5.03, 370.59 7.26 M370.59 7.26 C369.64 8.23, 370.54 11.53, 368.17 9.68 M370.59 7.26 C369.09 8.85, 370.88 11.57, 368.17 9.68 M368.17 9.68 C227.24 10.93, 85.03 11.55, 2.42 9.68 M368.17 9.68 C263.15 8.8, 156.52 8.55, 2.42 9.68 M2.42 9.68 C0.12 9.51, -0.45 9.92, 0 7.26 M2.42 9.68 C2.61 8.67, 1.45 7.94, 0 7.26 M0 7.26 C0.23 5.99, 0.29 4.9, 0 2.42 M0 7.26 C-0.1 5.18, 0.21 3.35, 0 2.42 M0 2.42 C0.16 -0.68, -0.02 0.49, 2.42 0 M0 2.42 C-0.72 -0.27, 2.26 0.87, 2.42 0" stroke="#000000" stroke-width="1" fill="none"></path></g><g stroke-linecap="round"><g stroke-opacity="0.5" fill-opacity="0.5" transform="translate(41.3359375 497.18359375) rotate(0 -0.2553702477365789 -62.024103492125846)"><path d="M0.87 -1.12 C0.78 -21.47, -1.14 -102.43, -1.38 -122.93" stroke="#000000" stroke-width="1.5" fill="none" stroke-dasharray="8 9"></path></g><g stroke-opacity="0.5" fill-opacity="0.5" transform="translate(41.3359375 497.18359375) rotate(0 -0.2553702477365789 -62.024103492125846)"><path d="M-3.17 -124.14 L7.18 -110.53 L-6.96 -107.8 L-1.89 -122" stroke="none" stroke-width="0" fill="#000000" fill-rule="evenodd"></path><path d="M-2.78 -124.05 C0.59 -119.99, 0.63 -116.84, 4.07 -110.04 M5.93 -110.65 C-0.35 -110.04, -4.84 -110.36, -6.74 -109.32 M-6.75 -109.7 C-4.69 -113.17, -3.19 -119.67, -1 -122.21 M-1.38 -122.93 C-1.38 -122.93, -1.38 -122.93, -1.38 -122.93" stroke="#000000" stroke-width="1.5" fill="none"></path></g></g><mask></mask><g stroke-linecap="round"><g stroke-opacity="0.5" fill-opacity="0.5" transform="translate(296.11097117533666 653.5743184489717) rotate(0 12.909223745130078 -78.43925798193271)"><path d="M0.43 -0.51 C4.67 -26.59, 21.21 -130.74, 25.39 -156.37" stroke="#000000" stroke-width="1.5" fill="none" stroke-dasharray="8 9"></path></g><g stroke-opacity="0.5" fill-opacity="0.5" transform="translate(296.11097117533666 653.5743184489717) rotate(0 12.909223745130078 -78.43925798193271)"><path d="M24.9 -155.53 L30.55 -142.44 L15.51 -145.24 L26.13 -155.22" stroke="none" stroke-width="0" fill="#000000" fill-rule="evenodd"></path><path d="M24.76 -156.58 C25.17 -152.15, 28.97 -147.05, 28.56 -142.66 M28.94 -141.21 C26.27 -142.55, 23.41 -142.92, 16.83 -144.37 M17.38 -143.39 C18.55 -147.12, 22.6 -151.12, 26.51 -155.8 M25.39 -156.37 C25.39 -156.37, 25.39 -156.37, 25.39 -156.37" stroke="#000000" stroke-width="1.5" fill="none"></path></g></g><mask></mask><g stroke-opacity="0.2" fill-opacity="0.2" stroke-linecap="round" transform="translate(11.6953125 51.984375) rotate(0 185.060546875 20.533203125)"><path d="M8.53 -0.16 L358.54 -1.28 L369 1.64 L369.21 5.26 L371.92 32.31 L367.87 39.94 L359.5 40.99 L11.46 42.75 L1.25 39.73 L-0.53 29.28 L0.55 6.29 L4.36 1.86 L9.95 -0.98" stroke="none" stroke-width="0" fill="#228be6"></path><path d="M10.27 0 M10.27 0 C84.35 0.81, 159.56 1.01, 359.85 0 M359.85 0 C368.13 0.47, 370.78 1.58, 370.12 10.27 M370.12 10.27 C370.59 18.54, 369.02 22.45, 370.12 30.8 M370.12 30.8 C369.81 35.82, 365.39 40.58, 359.85 41.07 M359.85 41.07 C226.34 40.93, 91.83 41.8, 10.27 41.07 M10.27 41.07 C3.99 41.93, -0.67 39.46, 0 30.8 M0 30.8 C-0.09 24.98, 0.37 19.74, 0 10.27 M0 10.27 C-0.3 5.08, 2.07 -1.9, 10.27 0" stroke="#000000" stroke-width="1.5" fill="none" stroke-dasharray="8 9"></path></g><g transform="translate(126.78515625 60.8515625) rotate(0 74 12.5)"><text x="0" y="18" font-family="Virgil, Segoe UI Emoji" font-size="20px" fill="#000000" text-anchor="start" style="white-space: pre;" direction="ltr">Zone 0 Bitmap</text></g><g stroke-opacity="0.2" fill-opacity="0.2" stroke-linecap="round" transform="translate(11.826171875 221.533203125) rotate(0 185.060546875 20.533203125)"><path d="M8.71 -0.86 L361.82 -0.65 L367.7 3.06 L369.13 4.2 L368.38 29.14 L366.03 38.58 L359.14 42.51 L12.04 40.58 L3.45 40.42 L-0.96 31.05 L2.53 7.01 L5.7 0.81 L10.52 0.17" stroke="none" stroke-width="0" fill="#228be6"></path><path d="M10.27 0 M10.27 0 C119.58 0.93, 228.26 1.5, 359.85 0 M359.85 0 C367.55 1.05, 369.11 4.08, 370.12 10.27 M370.12 10.27 C371.69 16.53, 369.39 21.69, 370.12 30.8 M370.12 30.8 C368.79 36.97, 367.64 40.13, 359.85 41.07 M359.85 41.07 C263.64 39.03, 168.86 37.92, 10.27 41.07 M10.27 41.07 C4.41 40.02, 1.66 39, 0 30.8 M0 30.8 C1.13 25.34, -1.86 20.72, 0 10.27 M0 10.27 C1.2 2.07, 2.1 1.67, 10.27 0" stroke="#000000" stroke-width="1.5" fill="none" stroke-dasharray="8 9"></path></g><g stroke-opacity="0.2" fill-opacity="0.2" stroke-linecap="round" transform="translate(11.392578125 362.130859375) rotate(0 186.404296875 17.833984375)"><path d="M9.27 -0.43 L363.92 0.44 L371.47 3.82 L370.95 6.62 L374.49 27.78 L370.77 33.13 L362.29 35.67 L8.91 35.92 L2.08 35.4 L1.75 25.9 L-1.42 6.71 L1.5 2.84 L6.95 -0.64" stroke="none" stroke-width="0" fill="#228be6"></path><path d="M8.92 0 M8.92 0 C87.83 -0.48, 169.91 1.01, 363.89 0 M363.89 0 C369.61 -1.26, 374.55 2.75, 372.81 8.92 M372.81 8.92 C372.3 13.13, 373.78 17.14, 372.81 26.75 M372.81 26.75 C371.05 32.39, 369.75 34.58, 363.89 35.67 M363.89 35.67 C226.34 34.57, 86.52 33.97, 8.92 35.67 M8.92 35.67 C3.54 37.36, -1.29 33.47, 0 26.75 M0 26.75 C-0.73 18.62, -1.13 11.41, 0 8.92 M0 8.92 C-0.13 2.19, 1.48 0.96, 8.92 0" stroke="#000000" stroke-width="1.5" fill="none" stroke-dasharray="8 9"></path></g><g stroke-opacity="0.2" fill-opacity="0.2" stroke-linecap="round" transform="translate(10.970703125 478.111328125) rotate(0 184.17578125 19.294921875)"><path d="M11.4 1.24 L356.87 0.14 L363.65 1.42 L367.12 3.61 L367.23 27.39 L366.09 34.92 L358.29 39.44 L7.97 37.45 L4.01 37.06 L0.04 29.66 L1.59 4.99 L7.23 2.28 L10.84 0.08" stroke="none" stroke-width="0" fill="#228be6"></path><path d="M9.65 0 M9.65 0 C123.76 0.68, 234.32 0.15, 358.7 0 M358.7 0 C363.23 1.6, 370.33 4.24, 368.35 9.65 M368.35 9.65 C368.07 13.71, 369.52 19.85, 368.35 28.94 M368.35 28.94 C368.54 35.65, 366.08 40.32, 358.7 38.59 M358.7 38.59 C246.74 35.67, 134.85 36.02, 9.65 38.59 M9.65 38.59 C3.55 36.75, -1.04 36.46, 0 28.94 M0 28.94 C0.46 21.72, -0.47 14.79, 0 9.65 M0 9.65 C0.42 3.16, 4.25 -0.3, 9.65 0" stroke="#000000" stroke-width="1.5" fill="none" stroke-dasharray="8 9"></path></g><g stroke-opacity="0.4" fill-opacity="0.4" stroke-linecap="round" transform="translate(10.41796875 775.005859375) rotate(0 185.29296875 5.490234375)"><path d="M1.36 -0.64 L368.94 -0.64 L371.17 1.14 L370.21 7.61 L368.64 9.84 L1.52 10.3 L0.28 8.82 L-1.26 2.22 L0.9 1.81" stroke="none" stroke-width="0" fill="#ced4da"></path><path d="M2.75 0 M2.75 0 C135.48 1.28, 270.84 1.74, 367.84 0 M2.75 0 C80.22 1.15, 158.82 1.11, 367.84 0 M367.84 0 C368.69 0.77, 369.62 2.71, 370.59 2.75 M367.84 0 C367.61 1.89, 370.46 0.57, 370.59 2.75 M370.59 2.75 C370.79 4.51, 370.65 5.97, 370.59 8.24 M370.59 2.75 C370.82 4.43, 370.55 6.4, 370.59 8.24 M370.59 8.24 C370.86 8.07, 369.84 10.45, 367.84 10.98 M370.59 8.24 C371.1 11.11, 368.04 12.84, 367.84 10.98 M367.84 10.98 C230.26 12.25, 89.49 12.57, 2.75 10.98 M367.84 10.98 C229.31 9.51, 91.81 8.46, 2.75 10.98 M2.75 10.98 C1.71 10.21, -1.54 10.15, 0 8.24 M2.75 10.98 C-0.2 11.11, 1.04 10.87, 0 8.24 M0 8.24 C0.45 6.92, -0.5 6.25, 0 2.75 M0 8.24 C-0.23 6.38, -0.2 4.43, 0 2.75 M0 2.75 C0.28 -0.23, 1.36 -1.03, 2.75 0 M0 2.75 C0.31 2.72, 0.78 -1.89, 2.75 0" stroke="#000000" stroke-width="1" fill="none"></path></g><g stroke-opacity="0.2" fill-opacity="0.2" stroke-linecap="round" transform="translate(12.73828125 789.064453125) rotate(0 184.17578125 47.537109375)"><path d="M22.64 -1.15 L349.86 -1.05 L362.99 6.97 L365.79 13.85 L367.19 23.41 L366.34 76.26 L361.24 87.51 L355.13 92.38 L342.7 93.1 L17.93 93.05 L6.49 87.72 L1.4 81.55 L-1.65 72.48 L0.83 25.02 L-0.41 11.45 L7.92 4.61 L12.07 0.23 L23.96 0.38" stroke="none" stroke-width="0" fill="#228be6"></path><path d="M23.77 0 M23.77 0 C143.04 0.28, 260.42 1.69, 344.58 0 M344.58 0 C358.97 1.84, 369.42 7.54, 368.35 23.77 M368.35 23.77 C367.53 35.05, 368.6 46.19, 368.35 71.31 M368.35 71.31 C366.57 88.87, 358.76 95.25, 344.58 95.07 M344.58 95.07 C257.52 95, 169.54 94.55, 23.77 95.07 M23.77 95.07 C6.05 94.09, 0.62 85.55, 0 71.31 M0 71.31 C1.14 61.32, -0.04 51.44, 0 23.77 M0 23.77 C-0.67 6.22, 6.82 -1.71, 23.77 0" stroke="#000000" stroke-width="1.5" fill="none" stroke-dasharray="8 9"></path></g><g transform="translate(129.3359375 799.46484375) rotate(0 93.5 37.5)"><text x="0" y="18" font-family="Virgil, Segoe UI Emoji" font-size="20px" fill="#000000" text-anchor="start" style="white-space: pre;" direction="ltr">zone[0..N]</text><text x="0" y="43" font-family="Virgil, Segoe UI Emoji" font-size="20px" fill="#000000" text-anchor="start" style="white-space: pre;" direction="ltr">zone[1].user_pages</text><text x="0" y="68" font-family="Virgil, Segoe UI Emoji" font-size="20px" fill="#000000" text-anchor="start" style="white-space: pre;" direction="ltr">zone[1].bitmap</text></g><g stroke-opacity="0.4" fill-opacity="0.4" stroke-linecap="round" transform="translate(12.609375 884.677734375) rotate(0 185.29296875 5.490234375)"><path d="M1.26 -1.21 L367.76 -0.96 L369.12 2.01 L370.26 8.55 L369.62 9.47 L1.37 10.84 L1.21 9.85 L2.41 0.51 L1.64 1.15" stroke="none" stroke-width="0" fill="#ced4da"></path><path d="M2.75 0 M2.75 0 C135.96 -1.32, 267.22 -1.72, 367.84 0 M2.75 0 C97.55 0.1, 192.65 0.05, 367.84 0 M367.84 0 C371.45 -0.49, 369.56 0.87, 370.59 2.75 M367.84 0 C371.33 0.86, 368.61 1.18, 370.59 2.75 M370.59 2.75 C370.66 5.11, 370.7 5.95, 370.59 8.24 M370.59 2.75 C370.76 4.25, 370.74 5.93, 370.59 8.24 M370.59 8.24 C370.53 8.32, 368.34 11.89, 367.84 10.98 M370.59 8.24 C368.36 9.06, 370.13 12.24, 367.84 10.98 M367.84 10.98 C247.97 10.68, 124.96 9.72, 2.75 10.98 M367.84 10.98 C261.02 12.05, 153.57 11.47, 2.75 10.98 M2.75 10.98 C0.39 12.65, -0.24 10.82, 0 8.24 M2.75 10.98 C2.17 10.95, -0.35 11.85, 0 8.24 M0 8.24 C-0.01 6.51, -0.04 4.26, 0 2.75 M0 8.24 C0.27 6.04, 0.27 4.05, 0 2.75 M0 2.75 C0.34 1.24, 0.54 1.42, 2.75 0 M0 2.75 C0.27 1.67, -0.01 0.57, 2.75 0" stroke="#000000" stroke-width="1" fill="none"></path></g><g stroke-linecap="round"><g stroke-opacity="0.5" fill-opacity="0.5" transform="translate(175.19038562986998 707.1951173569328) rotate(0 -7.481214029975149 48.25296241312566)"><path d="M0.72 -1.02 C-1.7 15.1, -12.89 81.43, -15.68 97.53" stroke="#000000" stroke-width="1.5" fill="none" stroke-dasharray="8 9"></path></g><g stroke-opacity="0.5" fill-opacity="0.5" transform="translate(175.19038562986998 707.1951173569328) rotate(0 -7.481214029975149 48.25296241312566)"><path d="M-14.34 95.72 L-18.65 84.16 L-8.39 84.59 L-14.16 96.12" stroke="none" stroke-width="0" fill="#000000" fill-rule="evenodd"></path><path d="M-16.95 96.76 C-15.12 93.4, -18.38 91.52, -19.27 83.21 M-19.57 83.18 C-17.15 82.33, -12.96 83.99, -6.03 85.98 M-8.1 84.29 C-9.54 88.28, -13.87 92.04, -16.54 98.26 M-15.68 97.53 C-15.68 97.53, -15.68 97.53, -15.68 97.53" stroke="#000000" stroke-width="1.5" fill="none"></path></g></g><mask></mask></svg>